<svg id="visual" viewBox="0 0 900 450" width="900" height="450" xmlns="http://www.w3.org/2000/svg" xmlns:xlink="http://www.w3.org/1999/xlink" version="1.1"><rect x="0" y="0" width="900" height="450" fill="#FFFFFF"></rect><defs><linearGradient id="grad1_0" x1="50%" y1="0%" x2="100%" y2="100%"><stop offset="10%" stop-color="#ffffff" stop-opacity="1"></stop><stop offset="90%" stop-color="#ffffff" stop-opacity="1"></stop></linearGradient></defs><defs><linearGradient id="grad2_0" x1="0%" y1="0%" x2="50%" y2="100%"><stop offset="10%" stop-color="#ffffff" stop-opacity="1"></stop><stop offset="90%" stop-color="#ffffff" stop-opacity="1"></stop></linearGradient></defs><g transform="translate(900, 0)"><path d="M0 270C-33.1 270.8 -66.2 271.5 -79.1 243.5C-92 215.4 -84.6 158.6 -102.3 140.8C-119.9 122.9 -162.6 144.1 -194.2 141.1C-225.7 138.1 -246 111 -256.8 83.4C-267.6 55.9 -268.8 28 -270 0L0 0Z" fill="#FBAE3C"></path></g><g transform="translate(0, 450)"><path d="M0 -270C36.3 -279.4 72.5 -288.8 83.4 -256.8C94.3 -224.8 79.9 -151.3 90.5 -124.6C101.1 -97.9 136.7 -118 160.2 -116.4C183.6 -114.8 194.9 -91.6 211.1 -68.6C227.4 -45.6 248.7 -22.8 270 0L0 0Z" fill="#FBAE3C"></path></g></svg>